Coordinates

Units are S.I. units (second, meters, Newtons, ...)
If the header above contains a line with 'inDegrees', this indicates whether rotational values are in degrees (yes) or radians (no).

inDegrees=no
nColumns=22
nRows=26
DataType=double
version=3
OpenSimVersion=4.6-2026-03-31-d6972f9e6
endheader
time	/jointset/ground_pelvis/pelvis_tilt/value	/jointset/ground_pelvis/pelvis_list/value	/jointset/ground_pelvis/pelvis_rotation/value	/jointset/ground_pelvis/pelvis_tx/value	/jointset/ground_pelvis/pelvis_ty/value	/jointset/ground_pelvis/pelvis_tz/value	/jointset/hip_r/hip_flexion_r/value	/jointset/hip_r/hip_adduction_r/value	/jointset/hip_r/hip_rotation_r/value	/jointset/walker_knee_r/knee_angle_r/value	/jointset/patellofemoral_r/knee_angle_r_beta/value	/jointset/ankle_r/ankle_angle_r/value	/jointset/hip_l/hip_flexion_l/value	/jointset/hip_l/hip_adduction_l/value	/jointset/hip_l/hip_rotation_l/value	/jointset/walker_knee_l/knee_angle_l/value	/jointset/patellofemoral_l/knee_angle_l_beta/value	/jointset/ankle_l/ankle_angle_l/value	/jointset/back/lumbar_extension/value	/jointset/back/lumbar_bending/value	/jointset/back/lumbar_rotation/value
46.375	-0.3313912290619963	-0.01617035252707078	3.134213889914947	-3.337903530886699	0.8467195378239077	2.477310993366728	0.5942582663567023	-0.2454848044575281	0.0264945891846225	1.554764466853954	1.554764466697997	0.3416633626617623	0.6086069635478012	-0.2905933262869838	0.01631713370105702	1.520557747581747	1.520557747101176	0.4240074705374764	-1.304973873325876	-0.04233777619805579	0.04097604321024804
46.38	-0.3356691015616019	-0.01730886710578628	3.134025792657655	-3.339109711701866	0.8506264126879305	2.477558997291054	0.5832959147119681	-0.2472136749803669	0.02440632265674647	1.545748182193208	1.545748182168494	0.3393955233323268	0.5961237613689221	-0.2874208701565558	0.01486640534663987	1.510881660516366	1.510881659986427	0.422812206215685	-1.304876345636219	-0.04219058913384597	0.04023688016414199
46.385	-0.3399595222581789	-0.01839939469356852	3.133830270722482	-3.34034024005096	0.8545186301300773	2.477811248577966	0.5722981288257315	-0.2489315368932557	0.0222289322766108	1.536715060843336	1.536715060953702	0.3370765969177345	0.5836509053828071	-0.2842943397769011	0.01347704407979316	1.501199926160847	1.501199925590559	0.4215930525224806	-1.304700821131591	-0.04202106519517845	0.03954238618950663
46.39	-0.3442641177208184	-0.01944634889474714	3.133628173996485	-3.341595161172706	0.8583950848067604	2.478067613582197	0.5612651715740473	-0.2506402343291498	0.01996710067245859	1.527668199731024	1.527668199977695	0.3347105430940525	0.5711861554717255	-0.2812087433368291	0.01214872072559764	1.491514508640319	1.49151450803995	0.4203502620341575	-1.304448728599734	-0.04183090095621569	0.03888812549494097
46.395	-0.3485843819951729	-0.02045439939057464	3.133420357415195	-3.342874514849608	0.8622547361875472	2.478327935819207	0.5501973272706592	-0.2523416702490983	0.01762610068535461	1.518610587244408	1.518610587625819	0.3323019054747764	0.5587272889556136	-0.2781585644637005	0.01088133511882475	1.48182707035505	1.481827069735673	0.4190842580370604	-1.304121646628228	-0.04162193144835229	0.03826919903287317
46.4	-0.3529214403941338	-0.02142838946568572	3.133207625390364	-3.344178337831631	0.8660965900360313	2.478592024693613	0.5390951763062175	-0.2540376863574528	0.01521182092348027	1.509545111069655	1.509545111581412	0.3298557184901006	0.5462723806959174	-0.2751379877551878	0.009674891447409753	1.472138997168339	1.472138996541439	0.4177956008940712	-1.30372108013911	-0.04139617725441919	0.03768033026057112
46.405	-0.3572758048062509	-0.0223732458467762	3.132990679840756	-3.345506665869642	0.8699196779603264	2.478859645707985	0.5279598828532776	-0.2557299426919745	0.01273077442325956	1.500474570587721	1.500474571222783	0.3273773913917373	0.5338200984074283	-0.2721411285618499	0.008529381298511576	1.462451434064725	1.462451433441912	0.4164849419594501	-1.303248225556234	-0.04115588271133511	0.03711596098803312
46.41	-0.3616471754660295	-0.02329388694142603	3.132770082032352	-3.346859534643997	0.8737230408629777	2.479130514441597	0.5167934264638963	-0.2574198166553702	0.01019006995417494	1.491401683634929	1.491401684384004	0.3248725765768604	0.5213699474128857	-0.2691622408259802	0.007444696760377815	1.452765319161913	1.452765318554686	0.4151529743860572	-1.302703779783066	-0.04090353360132769	0.03657034489594325
46.415	-0.3660343530931006	-0.02419513602989053	3.132546239092282	-3.34823697883438	0.8775057230907091	2.47940429656266	0.5055986968570413	-0.259108342504942	0.007597323501839893	1.482329075405126	1.482329076257219	0.3223470328513914	0.5089223880810816	-0.2661958762832565	0.006420595513423655	1.443081401479864	1.443081400899354	0.413800393106683	-1.30208785712245	-0.04064184243850783	0.03603762590463344
46.42	-0.3704352853714932	-0.02508164241549778	3.13231941896412	-3.34963902913524	0.8812667797552936	2.479680614313756	0.4943794215129717	-0.260796197237232	0.004960505272554997	1.47325924560987	1.473259246552865	0.3198064917550785	0.4964787972074494	-0.263236986243323	0.005456723107882423	1.433400237302686	1.433400236759311	0.4124278703147812	-1.301400037700504	-0.04037369818704623	0.03551189750701489
46.425	-0.3748472145591762	-0.02595780843266044	3.132089787552227	-3.35106570766818	0.8850052936173409	2.479959057755463	0.483139967820191	-0.2624837188303205	0.002287741147095467	1.464194520598152	1.464194521619327	0.3172565292186099	0.4840413132533649	-0.2602809796951367	0.004552677926614902	1.423722172572353	1.4237221720754	0.4110360426658276	-1.300639513158181	-0.04010208852261003	0.03498725096596505
46.43	-0.37926688368289	-0.02682771983433451	3.131857457806274	-3.352517022369826	0.8887203970618058	2.480239198551773	0.4718850741407468	-0.2641709395495579	-0.0004129084562982387	1.455136997729177	1.455136998815596	0.3147024446278883	0.4716126151918597	-0.2573237568349551	0.003708096601079368	1.414047319674459	1.414047319231678	0.4096255054410704	-1.299805286404328	-0.039830006625859	0.03445782217699758
46.435	-0.3836907767555838	-0.02769508030328238	3.131622541786621	-3.353992960800185	0.8924112967944099	2.480520604552317	0.4606195423379585	-0.2658576251896002	-0.003133677636746202	1.44608848531994	1.446088486458711	0.3121491499360981	0.4591956613594015	-0.2543617302327137	0.002922739526266949	1.404375531804815	1.404375531422098	0.4081968120459495	-1.298896400905437	-0.03956035330424709	0.03391784159202434
46.44	-0.3881153637042609	-0.02856315240745529	3.131385198268855	-3.355493483813635	0.8960772984645382	2.480802853661443	0.449347929986143	-0.267543314225276	-0.005867317299005405	1.437050443264493	1.437050444442917	0.3096010659174296	0.4467934205442651	-0.2513918407383495	0.002196562027185819	1.394706379031281	1.394706378712485	0.4067504737269161	-1.297912170333525	-0.03929584480012468	0.0333616890159125
46.445	-0.3925373100413576	-0.02943470693639412	3.131145668952238	-3.357018519578636	0.8997178271286079	2.481085545507691	0.4380742934070858	-0.2692273489426923	-0.008607289543280543	1.42802393295748	1.428023934163131	0.3070620200572651	0.4344086414083507	-0.2484115737314689	0.001529761853245647	1.38503913320295	1.385039132949858	0.4052869512036217	-1.296852368505789	-0.03903893694388118	0.03278395604823973
46.45	-0.3969536320354144	-0.03031198279387266	3.130904298874227	-3.358567958346835	0.903332441314893	2.481368309833869	0.4268020065873319	-0.2709088938077683	-0.01134791749855613	1.419009582521172	1.419009583741965	0.3045351483025989	0.4220436820905518	-0.2454189788305284	0.000922795654648044	1.375372765481894	1.375372765294332	0.4038066365115147	-1.295717360195595	-0.03879177299488445	0.03217951748697057
46.455	-0.4013618117195458	-0.03119666001129837	3.130661541224744	-3.360141648227868	0.9069208417885533	2.481650811377876	0.4155336384222468	-0.2725869439474166	-0.01408448892388011	1.410007567493511	1.410007568717831	0.3020228116348976	0.4097003822747011	-0.2424126925151178	0.000376358863713372	1.365705954259695	1.36570595413576	0.4023098324694918	-1.294508187054985	-0.03855615579468238	0.03154360889015495
46.46	-0.4057598862947872	-0.03208984667952892	3.130417947327367	-3.361739392195042	0.9104828764197024	2.481932751399383	0.4042708695874484	-0.2742603269969313	-0.01681331645730758	1.401017605455896	1.401017606672791	0.2995265370308787	0.3973799601081716	-0.2393919635728369	-0.0001086743991464589	1.356037100732581	1.356037100668938	0.4007967364117875	-1.29322662338725	-0.03833354271063107	0.0308719069698438
46.465	-0.4101465006437381	-0.03299207838117793	3.130174140456978	-3.363360946543025	0.9140185403449945	2.482213865939621	0.3930144618623946	-0.275927696782247	-0.01953175144763571	1.392038965491675	1.392038966691076	0.2970469828426653	0.3850829475020465	-0.2363566828421148	-0.0005313500843199874	1.34636435321828	1.346364353210467	0.3992674261606733	-1.291875191159142	-0.03812506398009359	0.03016061178342892
46.47	-0.4145209091104506	-0.03390332954498743	3.129930776534518	-3.365006020792551	0.9175279704588473	2.48249392162238	0.381764294552248	-0.2775875215345465	-0.02223815443493389	1.383070493642221	1.383070494815156	0.2945839221207824	0.3728091821618238	-0.2333074117933491	-0.0008907579777579119	1.336685641746862	1.336685641789611	0.3977218420711627	-1.290457121516408	-0.03793156096262471	0.02940652742135836
46.475	-0.4188829366717194	-0.03482303788607169	3.129688501469049	-3.366674278723988	0.9210114355646133	2.482772710726105	0.3705194514800339	-0.2792380771067364	-0.02493183842671557	1.374110651588571	1.37411065272736	0.2921362406644792	0.3605578474875416	-0.2302453961632596	-0.001186156710927813	1.326998720159947	1.326998720247519	0.396159763418537	-1.288976274208739	-0.03775363344833266	0.02860713383264113
46.48	-0.4232329167784151	-0.03575014137228956	3.129447911969836	-3.368365340215738	0.9244693242408714	2.483050046643511	0.35927833386669	-0.2808774505771101	-0.02761299706325614	1.365157562580179	1.365157563678607	0.2897019532830476	0.3483275409388881	-0.2271725564317454	-0.001417083698701081	1.317301210424667	1.317301210551144	0.3945807821248826	-1.287437033384186	-0.0375916875389167	0.02776064498831567
46.485	-0.4275716134652277	-0.03668312427833005	3.129209520135854	-3.370078783670779	0.9279021317649574	2.483325759800551	0.348038787402858	-0.2825035507473361	-0.03028262082535205	1.356209056105626	1.356209057159064	0.2872782427246979	0.3361163598073886	-0.2240914567022605	-0.001583444641426976	1.30759064260742	1.307590642766868	0.3929842765802851	-1.28584418849832	-0.03744598212809132	0.02686605255577554
46.49	-0.4319001406316927	-0.03762006915797943	3.128973722410081	-3.371814148690763	0.9313104481909861	2.483599694260413	0.3367982246667818	-0.2841141241525014	-0.03294240927465704	1.347262698927088	1.347262699932545	0.2848615230471012	0.3239219859762612	-0.2210052523827707	-0.001685575714599887	1.297864479838543	1.297864480024991	0.3913693876493118	-1.284202814627444	-0.03731667174848326	0.02592315258389682
46.495	-0.4362198929046778	-0.03855871272923029	3.128740773115436	-3.373570938765048	0.9346949494462816	2.483871705192071	0.3255537238090338	-0.2857067767953612	-0.03559468556762781	1.338315804724042	1.338315805680096	0.2824475276223269	0.3117417505230501	-0.217917617430071	-0.001724275637809003	1.288120120542478	1.288120120749778	0.389734999599919	-1.282518167819349	-0.03720384447457713	0.02493255369789481
46.5	-0.4405324831685582	-0.03949650358245746	3.12851076046446	-3.375348624218805	0.9380563905382779	2.48414165688705	0.3143021116110279	-0.2872789979063237	-0.03824230810770517	1.329365428567093	1.329365429473707	0.2800314191358239	0.2995726850037255	-0.2148326585000371	-0.001700816019212796	1.278354883440928	1.27835488366257	0.388079727130376	-1.280795590975879	-0.0371075569642775	0.02389567083217191
